<svg xmlns="http://www.w3.org/2000/svg" xmlns:xlink="http://www.w3.org/1999/xlink" viewBox="0 0 319.76 322.3"><defs><style>.cls-1{fill:none;}.cls-2{isolation:isolate;}.cls-3{clip-path:url(#clip-path);}.cls-4{fill:url(#linear-gradient);}.cls-5{fill:url(#linear-gradient-2);}.cls-6{fill:url(#linear-gradient-3);}.cls-13,.cls-7{fill:#ff8d01;}.cls-7{stroke:#fff;stroke-miterlimit:10;}.cls-8{fill:#fff;}.cls-9{fill:#fefa00;}.cls-10{fill:red;}.cls-11{fill:#00beff;}.cls-12{fill:#30cf00;}.cls-14{mix-blend-mode:multiply;fill:url(#radial-gradient);}.cls-15{fill:#040477;}</style><clipPath id="clip-path" transform="translate(-17.45 -10.27)"><rect class="cls-1" width="354.65" height="259.18"/></clipPath><linearGradient id="linear-gradient" x1="298.08" y1="49.4" x2="33.48" y2="314" gradientTransform="translate(8.66 -8.59) rotate(2.84)" gradientUnits="userSpaceOnUse"><stop offset="0" stop-color="#bcbec0"/><stop offset="0.63" stop-color="#f1f2f2"/><stop offset="1" stop-color="#595758"/></linearGradient><linearGradient id="linear-gradient-2" x1="57.68" y1="289.8" x2="309.09" y2="38.39" gradientTransform="translate(343.8 -10.63) rotate(88.82)" gradientUnits="userSpaceOnUse"><stop offset="0" stop-color="#bcbec0"/><stop offset="0.63" stop-color="#f1f2f2"/><stop offset="1" stop-color="#cbcdce"/></linearGradient><linearGradient id="linear-gradient-3" x1="97.47" y1="250.01" x2="275.28" y2="72.2" gradientTransform="translate(341.58 -12.65) rotate(88.12)" xlink:href="#linear-gradient"/><radialGradient id="radial-gradient" cx="177.33" cy="170.15" r="125.77" gradientUnits="userSpaceOnUse"><stop offset="0.47" stop-color="#808285"/><stop offset="0.66" stop-color="#fff"/><stop offset="0.82" stop-color="#fff"/><stop offset="0.84" stop-color="#fff"/><stop offset="0.91" stop-color="#bfc0c2"/><stop offset="0.97" stop-color="#919396"/><stop offset="1" stop-color="#808285"/></radialGradient></defs><g class="cls-2"><g id="Layer_2" data-name="Layer 2"><g id="Layer_1-2" data-name="Layer 1"><g class="cls-3"><circle class="cls-4" cx="177.33" cy="170.15" r="159.88" transform="translate(-25.67 -1.27) rotate(-2.84)"/><circle class="cls-5" cx="177.33" cy="170.15" r="156.93" transform="translate(-13.89 333.67) rotate(-88.82)"/><circle class="cls-6" cx="177.33" cy="170.15" r="128.59" transform="translate(-15.99 331.54) rotate(-88.12)"/><path class="cls-7" d="M177.33,170.15H302.6a124.61,124.61,0,0,0-16.77-62.64l-108.5,62.64Z" transform="translate(-17.45 -10.27)"/><path class="cls-8" d="M177.33,295.43A124.71,124.71,0,0,0,240,278.66L177.33,170.15Z" transform="translate(-17.45 -10.27)"/><path class="cls-8" d="M177.33,295.87h-.45V168.51l63.69,110.31-.38.22A125.62,125.62,0,0,1,177.33,295.87Zm.44-124.07V295a124.92,124.92,0,0,0,61.6-16.49Z" transform="translate(-17.45 -10.27)"/><path class="cls-9" d="M177.33,170.15l108.5-62.64A125.9,125.9,0,0,0,240,61.65l-62.64,108.5Z" transform="translate(-17.45 -10.27)"/><path class="cls-8" d="M176.12,171.36,239.81,61l.38.23a126.23,126.23,0,0,1,46,46l.23.38-.39.22Zm64-109.11L178.53,169l106.7-61.6A125.54,125.54,0,0,0,240.13,62.25Z" transform="translate(-17.45 -10.27)"/><path class="cls-8" d="M177.33,170.15,68.82,232.8a125.9,125.9,0,0,0,45.86,45.86l62.65-108.51Z" transform="translate(-17.45 -10.27)"/><path class="cls-8" d="M114.84,279.26l-.38-.22a126.31,126.31,0,0,1-46-46l-.22-.38.38-.22L178.53,169ZM69.42,233a125.62,125.62,0,0,0,45.1,45.1l61.6-106.7Z" transform="translate(-17.45 -10.27)"/><path class="cls-10" d="M177.33,170.15l108.5,62.65a124.62,124.62,0,0,0,16.77-62.65Z" transform="translate(-17.45 -10.27)"/><path class="cls-8" d="M286,233.4l-.38-.22L175.68,169.71H303v.44A125.63,125.63,0,0,1,286.21,233ZM179,170.59l106.7,61.61a124.82,124.82,0,0,0,16.49-61.61Z" transform="translate(-17.45 -10.27)"/><path class="cls-8" d="M177.33,170.15h0L240,278.66a125.9,125.9,0,0,0,45.86-45.86l-108.5-62.65Z" transform="translate(-17.45 -10.27)"/><path class="cls-8" d="M239.81,279.26l-.22-.38L176.12,169l110.31,63.69-.22.38a126.23,126.23,0,0,1-46,46Zm-61.28-107.9,61.6,106.7a125.54,125.54,0,0,0,45.1-45.1Z" transform="translate(-17.45 -10.27)"/><path class="cls-8" d="M177.33,170.15h0L114.68,278.66a124.72,124.72,0,0,0,62.65,16.77h0V170.15Z" transform="translate(-17.45 -10.27)"/><path class="cls-8" d="M177.77,295.87h-.44A125.63,125.63,0,0,1,114.46,279l-.38-.22.22-.38,63.47-109.93ZM115.28,278.5A124.92,124.92,0,0,0,176.88,295V171.8Z" transform="translate(-17.45 -10.27)"/><path class="cls-11" d="M177.33,170.15h0V44.88h0a124.62,124.62,0,0,0-62.65,16.77l62.65,108.5Z" transform="translate(-17.45 -10.27)"/><path class="cls-8" d="M177.77,171.8,114.08,61.49l.38-.22a125.65,125.65,0,0,1,62.87-16.83h.44Zm-62.49-110,61.6,106.7V45.32A124.81,124.81,0,0,0,115.28,61.81Z" transform="translate(-17.45 -10.27)"/><path class="cls-12" d="M240,61.65a124.61,124.61,0,0,0-62.64-16.77V170.15Z" transform="translate(-17.45 -10.27)"/><path class="cls-8" d="M176.88,171.8V44.44h.45a125.62,125.62,0,0,1,62.86,16.83l.38.22-.22.38Zm.89-126.48V168.51l61.6-106.7A124.81,124.81,0,0,0,177.77,45.32Z" transform="translate(-17.45 -10.27)"/><path class="cls-9" d="M114.68,61.65a125.9,125.9,0,0,0-45.86,45.86l108.51,62.64Z" transform="translate(-17.45 -10.27)"/><path class="cls-8" d="M178.53,171.36,68.22,107.67l.22-.38a126.23,126.23,0,0,1,46-46l.38-.23Zm-109.11-64L176.12,169l-61.6-106.7A125.54,125.54,0,0,0,69.42,107.35Z" transform="translate(-17.45 -10.27)"/><path class="cls-13" d="M177.33,170.15h0L68.82,107.51a124.71,124.71,0,0,0-16.77,62.64H177.33Z" transform="translate(-17.45 -10.27)"/><path class="cls-8" d="M179,170.59H51.61v-.44a125.62,125.62,0,0,1,16.83-62.86l.22-.39.38.22Zm-126.48-.88H175.68L69,108.11A124.75,124.75,0,0,0,52.49,169.71Z" transform="translate(-17.45 -10.27)"/><path class="cls-10" d="M52.05,170.15A124.72,124.72,0,0,0,68.82,232.8l108.51-62.65Z" transform="translate(-17.45 -10.27)"/><path class="cls-8" d="M68.66,233.4l-.22-.38a125.68,125.68,0,0,1-16.83-62.87v-.44H179ZM52.49,170.59A124.82,124.82,0,0,0,69,232.2l106.7-61.61Z" transform="translate(-17.45 -10.27)"/><path class="cls-14" d="M303.1,170.15A125.78,125.78,0,1,1,177.33,44.38,125.76,125.76,0,0,1,303.1,170.15Z" transform="translate(-17.45 -10.27)"/><path class="cls-8" d="M318.51,250.22,177.33,170.15,36.14,250.75a162.46,162.46,0,0,0,282.37-.53Z" transform="translate(-17.45 -10.27)"/><circle class="cls-8" cx="177.33" cy="170.15" r="73.72" transform="translate(-46.36 26.23) rotate(-10.87)"/><path class="cls-15" d="M121.57,33l1.46-.56,3.66,5.33-2.28-5.87,1.35-.52,3.92,10.11-1.46.57-3.53-5.17,2.2,5.68-1.4.54Z" transform="translate(-17.45 -10.27)"/><path class="cls-15" d="M134.41,37.6a2.25,2.25,0,1,1-4.25,1.45L128,32.77a2.25,2.25,0,1,1,4.25-1.45Zm-3.62-5.77a.63.63,0,0,0-.88-.48h0c-.43.15-.56.45-.4.92l2.14,6.27a.68.68,0,1,0,1.29-.44Z" transform="translate(-17.45 -10.27)"/><path class="cls-15" d="M133.17,28.83l2.19-.65c1.33-.39,2.21.14,2.64,1.6l.46,1.56a1.81,1.81,0,0,1-.64,2.16l3.11,4.34-1.64.48-2.7-4.17-.19.08,1.35,4.55-1.5.44Zm1.94,1,.88,3,.35-.1a2,2,0,0,0,.41-.17.67.67,0,0,0,.21-.79l-.46-1.56c-.14-.47-.42-.65-.86-.52Z" transform="translate(-17.45 -10.27)"/><path class="cls-15" d="M144.18,33.5l0-7.65,1.52-.37L148.28,36l-1.46.35-1.44-5.91.14,6.23-1,.25-2.77-5.59,1.43,5.91-1.47.36-2.56-10.54,1.52-.37Z" transform="translate(-17.45 -10.27)"/><path class="cls-15" d="M153.13,31.17l1.22,3.68-1.55.3-.73-2.2-1.57.3.12,2.31-1.54.3L148.86,32l-.23-7.09,2.1-.41Zm-1.55.3-1.44-4.32.26,4.54Z" transform="translate(-17.45 -10.27)"/><path class="cls-15" d="M155.21,34.72,153.59,24l1.55-.23L156.53,33l2.46-.37.23,1.53Z" transform="translate(-17.45 -10.27)"/><path class="cls-15" d="M190.56,31.44a2.25,2.25,0,1,1-4.48-.36l.54-6.61a2.24,2.24,0,1,1,4.47.36Zm-1-6.74c0-.48-.16-.75-.61-.79h0c-.45,0-.7.19-.74.68l-.53,6.61c0,.49.17.75.62.79s.7-.19.74-.68Z" transform="translate(-17.45 -10.27)"/><path class="cls-15" d="M194.84,34.05l-2.13-.26-.25-7.09,0-3.86L194,23l.08,8.42,2.11-8.16,1.57.2-1,3.75Z" transform="translate(-17.45 -10.27)"/><path class="cls-15" d="M199,23.68l4,.65-.24,1.53-2.46-.4-.5,3.06,2.11.34-.24,1.53-2.12-.34-.5,3.06,2.46.4L201.3,35l-4-.65Z" transform="translate(-17.45 -10.27)"/><path class="cls-15" d="M204.5,24.6l2.23.45c1.36.28,1.89,1.17,1.59,2.65L208,29.3a1.81,1.81,0,0,1-1.59,1.6l.72,5.3-1.68-.34-.43-5h-.2l-.94,4.65-1.53-.31Zm1.23,1.82-.62,3,.35.07a1.34,1.34,0,0,0,.45,0,.66.66,0,0,0,.55-.59l.33-1.6a.63.63,0,0,0-.52-.86Z" transform="translate(-17.45 -10.27)"/><path class="cls-15" d="M214,35.34l3.11-7.84,1.53.39-1.43,3.6L214.44,38l-2.08-.52.58-5.63-2.15,5.24-2.08-.52.64-7.07.43-3.84,1.53.38-1,8.37,3.11-7.83L215,27Z" transform="translate(-17.45 -10.27)"/><path class="cls-15" d="M220,28.38l3.87,1.22-.46,1.47L221,30.32l-.93,3,2,.65-.47,1.47-2-.64-.93,3,2.37.75-.46,1.47-3.87-1.21Z" transform="translate(-17.45 -10.27)"/><path class="cls-15" d="M225.23,30.07l1.47.51-3.55,10.24-1.48-.51Z" transform="translate(-17.45 -10.27)"/><path class="cls-15" d="M229.33,40.88a2.24,2.24,0,1,1-4.19-1.6l2.36-6.2a2.25,2.25,0,1,1,4.2,1.61l-.52,1.36-1.46-.56.52-1.36a.63.63,0,0,0-.37-.93h0a.62.62,0,0,0-.89.44l-2.37,6.2a.68.68,0,1,0,1.27.48l.91-2.37-.74-.28.55-1.45,2.2.84Z" transform="translate(-17.45 -10.27)"/><path class="cls-15" d="M234,33.35l1.43.62-1.84,4.27,1.26.54,1.84-4.27,1.43.62-4.29,9.95-1.43-.61,1.84-4.27L233,39.66l-1.84,4.27-1.43-.62Z" transform="translate(-17.45 -10.27)"/><path class="cls-15" d="M243.39,37.62,242.72,39l-1.32-.63-4,8.39L236,46.09l4-8.39-1.32-.63.67-1.39Z" transform="translate(-17.45 -10.27)"/><path class="cls-15" d="M195.81,60.43a2.46,2.46,0,0,1,1.51-1.76c.87-.4,1.34-.79,1.42-1.17l.31-1.67c.07-.39-.07-.61-.42-.68h0c-.36-.06-.57.1-.64.48l-.22,1.14-1.22-.23.21-1.14a1.79,1.79,0,1,1,3.52.66L200,57.75a2.46,2.46,0,0,1-1.52,1.78c-.87.41-1.34.81-1.42,1.23l-.09.51,2.29.43L199,62.91l-3.52-.66Z" transform="translate(-17.45 -10.27)"/><path class="cls-15" d="M203.25,59.62c.07-.3.05-.49-.07-.57a.9.9,0,0,0-.32-.13l-.11,0a.39.39,0,0,0-.49.24l-.09.34L201,59.2l1.22-4.46,3.31.76-.28,1.2-2.14-.49-.5,1.79a1,1,0,0,1,.92-.16l.15,0a1.33,1.33,0,0,1,.85.73,2.16,2.16,0,0,1,0,1.29l-.54,2.39a1.8,1.8,0,1,1-3.5-.8l.23-1,1.22.28-.23,1q-.13.57.39.69h0q.53.12.66-.45Z" transform="translate(-17.45 -10.27)"/><path class="cls-15" d="M205.27,60.52l.28-1,2.91.83-.28,1Z" transform="translate(-17.45 -10.27)"/><path class="cls-15" d="M212.15,59.12a.5.5,0,0,0-.35-.72h0c-.35-.11-.58,0-.69.4l-.34,1.11-1.19-.37.34-1.11a1.79,1.79,0,1,1,3.42,1.06l-.44,1.43a1.26,1.26,0,0,1-1,.95,1.23,1.23,0,0,1,.3,1.35l-.41,1.32a1.79,1.79,0,1,1-3.42-1.05l.34-1.11,1.19.36-.34,1.11c-.11.38,0,.62.34.72h0c.35.11.58,0,.69-.4l.41-1.32c.09-.3.08-.49,0-.59a.84.84,0,0,0-.3-.14l-.39-.12.37-1.17.48.15a.52.52,0,0,0,.27,0c.12,0,.22-.18.31-.45Z" transform="translate(-17.45 -10.27)"/><path class="cls-15" d="M216.19,66.07a1.61,1.61,0,0,1-2.3,1.12,1.59,1.59,0,0,1-1.08-2.31l1.76-5a1.79,1.79,0,1,1,3.38,1.2Zm.58-5.4c.13-.37,0-.61-.31-.73h0c-.34-.12-.57,0-.7.37l-1.77,5a.55.55,0,1,0,1,.37Z" transform="translate(-17.45 -10.27)"/><path class="cls-15" d="M251.5,80.48a.49.49,0,0,0-.05-.79h0a.5.5,0,0,0-.79.11l-.73.9-1-.79.74-.9a1.79,1.79,0,1,1,2.77,2.28l-1,1.16a1.23,1.23,0,0,1-1.29.49A1.26,1.26,0,0,1,250,84.3l-.87,1.06a1.79,1.79,0,1,1-2.77-2.27l.74-.9,1,.79-.74.9a.5.5,0,0,0,0,.79h0a.51.51,0,0,0,.8-.11L249,83.5c.2-.24.27-.42.2-.55a.77.77,0,0,0-.22-.24l-.32-.26.78-1,.39.32a.54.54,0,0,0,.24.12c.13,0,.28-.08.46-.3Z" transform="translate(-17.45 -10.27)"/><path class="cls-15" d="M252.62,88.47A1.79,1.79,0,1,1,250,86.08l3.52-3.94a1.79,1.79,0,1,1,2.67,2.38Zm2.59-4.78a.49.49,0,0,0,0-.79h0a.5.5,0,0,0-.79.08l-3.52,3.94a.5.5,0,0,0,0,.8.51.51,0,0,0,.8-.07Z" transform="translate(-17.45 -10.27)"/><path class="cls-15" d="M256.29,89.13l.74-.71,2.1,2.17-.73.72Z" transform="translate(-17.45 -10.27)"/><path class="cls-15" d="M264.5,93.06a.49.49,0,0,0,.07-.79h0a.51.51,0,0,0-.8,0l-.86.78-.83-.93.86-.78A1.79,1.79,0,1,1,265.33,94l-1.12,1a1.26,1.26,0,0,1-1.35.29,1.25,1.25,0,0,1-.44,1.31l-1,.92A1.79,1.79,0,1,1,259,94.85l.86-.77.83.92-.86.78a.5.5,0,0,0-.08.79h0a.51.51,0,0,0,.8,0l1-.92c.24-.21.33-.38.29-.52a1.24,1.24,0,0,0-.18-.27l-.28-.31.92-.82.34.38a.47.47,0,0,0,.21.16c.12,0,.29,0,.5-.23Z" transform="translate(-17.45 -10.27)"/><path class="cls-15" d="M265.51,98.64c.24-.2.34-.36.3-.5a.91.91,0,0,0-.18-.29l-.08-.09a.38.38,0,0,0-.53-.11l-.28.21-.79-1,3.69-2.79,2.15,2.63-1,.78-1.39-1.7L266,96.93a1.05,1.05,0,0,1,.83.44l.1.12a1.31,1.31,0,0,1,.22,1.1,2.16,2.16,0,0,1-.8,1l-1.89,1.56a1.79,1.79,0,1,1-2.28-2.77l.79-.65.8,1-.79.65a.5.5,0,0,0-.12.79h0a.51.51,0,0,0,.8,0Z" transform="translate(-17.45 -10.27)"/><path class="cls-15" d="M286.4,129.58a.5.5,0,0,0,.36-.71h0a.49.49,0,0,0-.73-.29l-1.09.4-.44-1.16,1.09-.41a1.79,1.79,0,1,1,1.26,3.35l-1.41.53a1.22,1.22,0,0,1-1.36-.22,1.26,1.26,0,0,1-.89,1.07l-1.29.48a1.79,1.79,0,1,1-1.26-3.35l1.08-.41.44,1.17-1.08.41a.49.49,0,0,0-.36.71h0a.5.5,0,0,0,.74.3l1.29-.48c.3-.11.45-.24.45-.38a.74.74,0,0,0-.07-.32l-.14-.39,1.15-.43.18.47a.53.53,0,0,0,.14.23c.09.08.28.07.55,0Z" transform="translate(-17.45 -10.27)"/><path class="cls-15" d="M285.33,135.15q.44-.15.45-.36a.79.79,0,0,0-.06-.33.56.56,0,0,0,0-.12.38.38,0,0,0-.45-.29l-.34.1L284.5,133,289,131.7l1.06,3.22-1.17.39-.69-2.09-1.79.49a1.09,1.09,0,0,1,.61.71.83.83,0,0,1,0,.15,1.29,1.29,0,0,1-.19,1.11,2.18,2.18,0,0,1-1.1.65l-2.33.77a1.79,1.79,0,1,1-1.12-3.41l1-.31.39,1.18-1,.32q-.56.18-.39.69h0a.51.51,0,0,0,.73.33Z" transform="translate(-17.45 -10.27)"/><path class="cls-15" d="M286.24,139.54l1-.25.73,2.93-1,.25Z" transform="translate(-17.45 -10.27)"/><path class="cls-15" d="M293.25,147.8l-5.18,1.08.09.47-1.2.25-.1-.47-2.07.43-.26-1.22,2.08-.43-.52-2.48,1.07-.22,5.77,1Zm-5.7-1.41.26,1.27L291,147Z" transform="translate(-17.45 -10.27)"/><path class="cls-15" d="M287.24,154a1.79,1.79,0,1,1-.58-3.54l5.22-.86a1.79,1.79,0,1,1,.58,3.53Zm5-2.1c.39-.06.55-.27.49-.62h0c-.06-.36-.28-.5-.67-.44l-5.21.86c-.39.06-.55.28-.5.63a.51.51,0,0,0,.67.45Z" transform="translate(-17.45 -10.27)"/><path class="cls-15" d="M287.64,195l-1.16-3.87,1.18.25.81,2.81,1.91-2.24,1.19.24-2.68,3.08Z" transform="translate(-17.45 -10.27)"/><path class="cls-15" d="M290.71,203l-5.1-1.43-.13.46-1.18-.33.13-.46-2-.58.34-1.2,2,.58.68-2.44,1.05.3,4.64,3.57Zm-4.41-3.88-.35,1.25,3.18.89Z" transform="translate(-17.45 -10.27)"/><path class="cls-15" d="M282.57,205.73a1.79,1.79,0,1,1,1.09-3.42l5,1.61a1.79,1.79,0,1,1-1.09,3.42Zm5.42.42a.5.5,0,0,0,.72-.34h0q.17-.51-.39-.69l-5-1.61a.55.55,0,1,0-.33,1Z" transform="translate(-17.45 -10.27)"/><path class="cls-15" d="M69.14,207.19l-3-2.77L67.3,204l2.14,2,.5-2.88,1.15-.38-.73,4Z" transform="translate(-17.45 -10.27)"/><path class="cls-15" d="M62.85,198.94,70,197.13,69.76,196l1.19-.3.87,3.48-1.19.3-.29-1.14-6,1.51.29,1.13-1.2.3Z" transform="translate(-17.45 -10.27)"/><path class="cls-15" d="M65.67,194.45a1.23,1.23,0,0,1-.48-.77.58.58,0,0,1,0-.19,1.38,1.38,0,0,1,.22-1,2,2,0,0,1,1.24-.63l1.68-.35a1.79,1.79,0,1,1,.75,3.5l-5.17,1.1a1.79,1.79,0,1,1-.75-3.5l1.13-.24.26,1.22-1.13.24c-.38.08-.54.3-.46.65h0c.08.35.3.49.69.4Zm1.21-1.37c-.3.07-.46.17-.49.31a.84.84,0,0,0,0,.34l0,.11c.07.29.3.39.67.31l1.68-.36a.54.54,0,1,0-.23-1.06Z" transform="translate(-17.45 -10.27)"/><path class="cls-15" d="M60.93,150.45l7.32,1.2.19-1.15,1.21.2-.58,3.54-1.22-.2.19-1.16-6.1-1L61.75,153l-1.21-.2Z" transform="translate(-17.45 -10.27)"/><path class="cls-15" d="M65.34,147.43a1.23,1.23,0,0,1-.13-.91,1.21,1.21,0,0,1,.05-.18,1.4,1.4,0,0,1,.61-.83,2,2,0,0,1,1.38-.07l1.69.35a1.79,1.79,0,1,1-.73,3.51L63,148.22a1.79,1.79,0,1,1,.73-3.51l1.13.24-.25,1.22-1.13-.24c-.39-.08-.62.06-.69.41h0a.5.5,0,0,0,.46.65Zm1.66-.77c-.3-.06-.49,0-.57.08a.82.82,0,0,0-.12.32s0,.08,0,.12c0,.29.12.47.49.55l1.68.35c.38.08.61-.06.68-.41s-.08-.58-.46-.65Z" transform="translate(-17.45 -10.27)"/><path class="cls-15" d="M67.68,142.25l-1-.28.83-2.91,1,.29Z" transform="translate(-17.45 -10.27)"/><path class="cls-15" d="M65.42,132.56l7,2.32.36-1.11,1.17.39-1.12,3.4-1.17-.39.37-1.11-5.88-1.93-.36,1.11-1.17-.38Z" transform="translate(-17.45 -10.27)"/><path class="cls-15" d="M67.4,130.56l-1.15-.43,1.3-3.45.83.31L75,131.36l-.45,1.2-6.36-4.18Z" transform="translate(-17.45 -10.27)"/><path class="cls-15" d="M84.42,97.32l5.85,4.55L91,101l1,.75-2.2,2.83-1-.76.71-.92-4.88-3.8-.72.93-1-.76Z" transform="translate(-17.45 -10.27)"/><path class="cls-15" d="M87,96.11l-.94-.8,2.38-2.81.68.57,4.79,6.35-.83,1-4.58-6.07Z" transform="translate(-17.45 -10.27)"/><path class="cls-15" d="M94.23,93.4l-.74-.7,2.08-2.2.74.71Z" transform="translate(-17.45 -10.27)"/><path class="cls-15" d="M96.89,83.75l5.09,5.4.85-.8.84.89-2.61,2.46-.84-.9.85-.8-4.24-4.5-.85.8-.85-.9Z" transform="translate(-17.45 -10.27)"/><path class="cls-15" d="M100.08,80.7a1.6,1.6,0,0,1,2.55.2l1,1.14a1.25,1.25,0,0,1,.27,1.36,1.23,1.23,0,0,1,1.3.46l.91,1a1.8,1.8,0,1,1-2.72,2.35l-.9-1a1.25,1.25,0,0,1-.27-1.36,1.25,1.25,0,0,1-1.3-.46l-1-1.14A1.6,1.6,0,0,1,100.08,80.7Zm2.64,2.87a.49.49,0,0,0,.16-.22c.05-.11,0-.28-.22-.5l-1-1.13a.51.51,0,0,0-.8-.09h0a.5.5,0,0,0,0,.8l1,1.13c.19.22.34.32.46.3a.61.61,0,0,0,.24-.14Zm2.4,2.94a.49.49,0,0,0,0-.79l-.9-1c-.2-.23-.38-.33-.51-.29a.72.72,0,0,0-.28.18l0,0a.9.9,0,0,0-.22.25c-.06.13,0,.31.22.55l.9,1a.5.5,0,0,0,.79.09Z" transform="translate(-17.45 -10.27)"/><path class="cls-15" d="M107.09,84.41l1.11-.9.9,1.11-1.11.9Z" transform="translate(-17.45 -10.27)"/><path class="cls-15" d="M109.29,79.25c-.19-.25-.35-.35-.48-.32a1,1,0,0,0-.3.17l-.09.08a.38.38,0,0,0-.14.52l.2.29-1,.75L104.85,77l2.71-2,.74,1-1.75,1.33,1,1.53a1.08,1.08,0,0,1,.47-.81l.13-.09a1.3,1.3,0,0,1,1.1-.18,2.19,2.19,0,0,1,1,.83l1.49,2a1.79,1.79,0,1,1-2.86,2.16l-.62-.81,1-.75.61.81a.5.5,0,0,0,.79.14h0a.5.5,0,0,0,.08-.8Z" transform="translate(-17.45 -10.27)"/><path class="cls-15" d="M132.63,60.88l2.84,6.85,1.08-.44.47,1.13-3.31,1.37-.47-1.13,1.08-.45L132,62.49l-1.08.45-.47-1.13Z" transform="translate(-17.45 -10.27)"/><path class="cls-15" d="M136.68,59.17A1.6,1.6,0,0,1,139,60.26l.52,1.42a1.24,1.24,0,0,1-.23,1.36,1.22,1.22,0,0,1,1.05.9l.48,1.29a1.79,1.79,0,1,1-3.37,1.23l-.48-1.3a1.24,1.24,0,0,1,.23-1.36,1.22,1.22,0,0,1-1.05-.9l-.52-1.41A1.6,1.6,0,0,1,136.68,59.17Zm1.45,3.62a.53.53,0,0,0,.23-.14c.08-.1.07-.28,0-.56l-.51-1.4a.5.5,0,0,0-.71-.36h0a.51.51,0,0,0-.31.74l.52,1.4c.1.27.21.42.33.44a.57.57,0,0,0,.27,0Zm1.19,3.6a.49.49,0,0,0,.31-.73l-.47-1.3c-.11-.29-.23-.45-.38-.46a.86.86,0,0,0-.32.08h0a.84.84,0,0,0-.29.15c-.11.1-.1.3,0,.6l.48,1.29a.5.5,0,0,0,.71.37Z" transform="translate(-17.45 -10.27)"/><path class="cls-15" d="M141.92,65.12l1.36-.44.45,1.36-1.36.44Z" transform="translate(-17.45 -10.27)"/><path class="cls-15" d="M145.8,61.08c-.09-.29-.2-.44-.34-.46a.79.79,0,0,0-.34.05l-.11,0a.38.38,0,0,0-.31.44l.08.34-1.19.35-1.13-4.48,3.26-1,.35,1.18L144,58.2,144.4,60a1.08,1.08,0,0,1,.73-.59l.15,0a1.28,1.28,0,0,1,1.09.23,2.18,2.18,0,0,1,.63,1.12l.69,2.36a1.79,1.79,0,1,1-3.44,1l-.29-1,1.2-.36.29,1c.11.37.33.51.68.41h0a.5.5,0,0,0,.35-.71Z" transform="translate(-17.45 -10.27)"/><path class="cls-15" d="M150.16,60.35l-.23-1,2.94-.69.23,1Z" transform="translate(-17.45 -10.27)"/><path class="cls-15" d="M156.51,60.84a2.43,2.43,0,0,1,.8-2.17c.67-.68,1-1.21.91-1.59l-.29-1.67c-.07-.39-.28-.55-.63-.49h0a.5.5,0,0,0-.43.67l.2,1.15-1.23.21-.2-1.14a1.79,1.79,0,1,1,3.53-.62l.3,1.7a2.46,2.46,0,0,1-.8,2.2c-.68.68-1,1.23-.9,1.64l.09.52,2.3-.41.21,1.21-3.53.62Z" transform="translate(-17.45 -10.27)"/><path class="cls-15" d="M163.17,57.49c0-.3-.13-.47-.26-.51a1,1,0,0,0-.35,0l-.11,0c-.25,0-.38.17-.38.39l0,.34-1.23.17-.42-4.6,3.36-.44.17,1.22-2.18.28.15,1.86a1.1,1.1,0,0,1,.81-.48h.15a1.31,1.31,0,0,1,1.06.39,2.2,2.2,0,0,1,.43,1.21l.33,2.43a1.8,1.8,0,1,1-3.56.47l-.13-1,1.24-.17.13,1c.05.39.25.55.61.51h0c.36,0,.51-.27.46-.65Z" transform="translate(-17.45 -10.27)"/><path class="cls-15" d="M66.92,83.32l1.17.89-.85,1.1,7,5.36-.9,1.18-7-5.36-.84,1.1-1.16-.88Z" transform="translate(-17.45 -10.27)"/><path class="cls-15" d="M67.71,82.33l.94-1.14L72.05,84l.83-1-3.4-2.82,1-1.14,7.92,6.56-.95,1.14L74,83.94l-.83,1,3.4,2.81-1,1.15Z" transform="translate(-17.45 -10.27)"/><path class="cls-15" d="M71.52,77.81l1-1.11,7.71,6.81-1,1.11Z" transform="translate(-17.45 -10.27)"/><path class="cls-15" d="M73.61,75.45l1-1.08,5.31,3.07-4.35-4.09,1-1L84,79.4l-1,1.08-5.13-3,4.21,4-1,1Z" transform="translate(-17.45 -10.27)"/><path class="cls-15" d="M77.74,71.11l1.06-1L84,73.39,79.81,69.1l1-.95L88,75.54l-1.06,1-5-3.21,4,4.15-1,1Z" transform="translate(-17.45 -10.27)"/><path class="cls-15" d="M82,67l2.86-2.57,1,1.08L84.09,67.1l2,2.19,1.51-1.37,1,1.09-1.51,1.37,2,2.18L90.78,71l1,1.08L88.9,74.64Z" transform="translate(-17.45 -10.27)"/><path class="cls-15" d="M87.12,65.11a2.13,2.13,0,1,1,3.28-2.73l.88,1.07-1.14,1-.88-1.07a.6.6,0,0,0-.94-.12h0a.59.59,0,0,0,0,.94l.6.72c.3.35,1,.49,2.15.4a2.9,2.9,0,0,1,2.58.93l.84,1a2.13,2.13,0,1,1-3.28,2.73l-.88-1.06,1.14-.95L92.29,69a.65.65,0,1,0,1-.83l-.75-.9c-.32-.38-1.05-.53-2.19-.44a2.92,2.92,0,0,1-2.61-1Z" transform="translate(-17.45 -10.27)"/><path class="cls-15" d="M91.49,61.51a2.13,2.13,0,1,1,3.38-2.6l.85,1.1-1.18.9-.84-1.1a.61.61,0,0,0-.94-.16h0a.59.59,0,0,0-.08.94l.57.74c.27.37,1,.53,2.12.49a2.88,2.88,0,0,1,2.55,1l.79,1a2.13,2.13,0,1,1-3.38,2.6l-.84-1.1,1.17-.9.85,1.09a.59.59,0,0,0,.94.16.59.59,0,0,0,.08-.94l-.71-.94c-.3-.39-1-.57-2.16-.53a2.89,2.89,0,0,1-2.57-1.07Z" transform="translate(-17.45 -10.27)"/><path class="cls-15" d="M38.3,150.15l1.45.19-.18,1.38,8.75,1.13-.19,1.47-8.75-1.13-.18,1.38-1.45-.19Z" transform="translate(-17.45 -10.27)"/><path class="cls-15" d="M38.48,148.91l.25-1.46,4.35.74.21-1.28L39,146.17l.25-1.46,10.14,1.72-.25,1.46-4.35-.74-.22,1.28,4.35.74-.25,1.46Z" transform="translate(-17.45 -10.27)"/><path class="cls-15" d="M39.52,143.09l.29-1.45,10.08,2-.29,1.45Z" transform="translate(-17.45 -10.27)"/><path class="cls-15" d="M40.15,140l.34-1.44h6.13l-5.81-1.37.32-1.34,10,2.37-.35,1.44H44.86L50.48,141l-.32,1.38Z" transform="translate(-17.45 -10.27)"/><path class="cls-15" d="M41.56,134.17l.4-1.42,6.13.28-5.74-1.63.38-1.32,9.89,2.82-.41,1.43L46.28,134l5.56,1.59L51.45,137Z" transform="translate(-17.45 -10.27)"/><path class="cls-15" d="M43.2,128.51l1.18-3.66,1.39.45-.72,2.25,2.8.9.63-1.93,1.39.45-.62,1.94,2.8.9.73-2.25,1.39.45L53,131.67Z" transform="translate(-17.45 -10.27)"/><path class="cls-15" d="M46.69,124.29a2.13,2.13,0,1,1,1.47-4l1.3.47-.52,1.39-1.3-.47a.59.59,0,0,0-.87.36h0c-.15.4,0,.68.43.84l.88.32c.42.16,1.11-.08,2.05-.72a2.87,2.87,0,0,1,2.71-.48l1.22.44a2.13,2.13,0,1,1-1.47,4l-1.3-.47.51-1.4,1.3.48a.6.6,0,0,0,.88-.37c.15-.4,0-.68-.43-.84l-1.1-.41c-.47-.17-1.17.06-2.11.71a2.93,2.93,0,0,1-2.75.47Z" transform="translate(-17.45 -10.27)"/><path class="cls-15" d="M48.67,119A2.13,2.13,0,1,1,50.3,115l1.28.53L51,116.94l-1.28-.53a.6.6,0,0,0-.89.33h0c-.17.4,0,.68.39.86l.87.36c.42.17,1.11,0,2.08-.64a2.87,2.87,0,0,1,2.73-.38l1.2.5a2.13,2.13,0,1,1-1.63,3.94l-1.28-.53.57-1.37L55,120a.61.61,0,0,0,.9-.34.6.6,0,0,0-.4-.86l-1.08-.45c-.46-.19-1.18,0-2.14.62a2.92,2.92,0,0,1-2.76.36Z" transform="translate(-17.45 -10.27)"/><path class="cls-15" d="M46.92,222.35l1.35-.57.54,1.29,8.14-3.4.57,1.37-8.14,3.4.53,1.28-1.35.56Z" transform="translate(-17.45 -10.27)"/><path class="cls-15" d="M46.46,221.17,46,219.78l4.13-1.53L49.63,217l-4.14,1.53L45,217.18l9.64-3.58.52,1.39L51,216.52l.46,1.22,4.13-1.54.51,1.39Z" transform="translate(-17.45 -10.27)"/><path class="cls-15" d="M44.45,215.62,44,214.21l9.75-3.27.47,1.41Z" transform="translate(-17.45 -10.27)"/><path class="cls-15" d="M43.46,212.64,43,211.22l5.31-3.06-5.71,1.72-.4-1.32,9.85-2.95.43,1.42L47.37,210l5.53-1.66.41,1.37Z" transform="translate(-17.45 -10.27)"/><path class="cls-15" d="M41.76,206.88l-.36-1.44,5.44-2.81-5.79,1.45-.33-1.34,10-2.5.36,1.44-5.28,2.72,5.6-1.41.35,1.39Z" transform="translate(-17.45 -10.27)"/><path class="cls-15" d="M40.34,201.15l-.8-3.76,1.43-.31.49,2.31,2.89-.61-.43-2,1.44-.31.42,2,2.88-.61-.49-2.32,1.43-.3.8,3.76Z" transform="translate(-17.45 -10.27)"/><path class="cls-15" d="M41.26,195.75a2.13,2.13,0,1,1-.73-4.2l1.36-.24.25,1.46-1.36.24c-.45.08-.65.33-.58.76h0c.07.42.33.59.79.51l.92-.16c.45-.08.93-.63,1.42-1.66a2.89,2.89,0,0,1,2.1-1.77l1.29-.22a2.13,2.13,0,1,1,.72,4.19l-1.36.24-.25-1.46,1.36-.24c.46-.08.65-.33.58-.76s-.34-.59-.8-.51l-1.16.2c-.49.08-1,.64-1.48,1.66a2.87,2.87,0,0,1-2.13,1.78Z" transform="translate(-17.45 -10.27)"/><path class="cls-15" d="M40.32,190.16a2.13,2.13,0,1,1-.56-4.22l1.37-.18.2,1.47-1.38.18c-.45.06-.66.3-.6.73h0c0,.42.31.6.77.54l.93-.12c.45-.06,1-.59,1.49-1.6a2.85,2.85,0,0,1,2.17-1.68l1.29-.17a2.13,2.13,0,1,1,.55,4.22l-1.37.18L45,188.05l1.37-.18c.46-.06.66-.3.61-.73s-.32-.61-.78-.55l-1.16.15c-.5.06-1,.6-1.55,1.6a2.9,2.9,0,0,1-2.21,1.7Z" transform="translate(-17.45 -10.27)"/><path class="cls-15" d="M35.85,225.77a2.34,2.34,0,1,1-1.64-4.38l1.43-.53.57,1.52-1.43.54a.65.65,0,0,0-.47.93h0q.24.66,1,.39l1-.36c.47-.18.87-.87,1.2-2.08a3.17,3.17,0,0,1,1.9-2.34l1.34-.5a2.34,2.34,0,1,1,1.64,4.38l-1.42.53-.57-1.52,1.42-.53a.71.71,0,1,0-.5-1.33L40,221c-.51.19-.92.89-1.25,2.1a3.16,3.16,0,0,1-1.95,2.35Z" transform="translate(-17.45 -10.27)"/><path class="cls-15" d="M31.59,220.52l-1.33-4,1.53-.5.81,2.46,3.07-1-.7-2.12,1.53-.51.7,2.12,3.08-1-.82-2.47L41,213l1.32,4Z" transform="translate(-17.45 -10.27)"/><path class="cls-15" d="M39.71,208.63l.62,2.15-6.69,3.12-3.7,1.61-.45-1.58,8.05-3.51-8.69,1.3-.45-1.58,4-.6Z" transform="translate(-17.45 -10.27)"/><path class="cls-15" d="M28.08,208.87l-1-4.1,1.56-.39.62,2.52,3.14-.77L31.85,204l1.57-.38.53,2.17,3.14-.78-.62-2.52,1.56-.38,1,4.1Z" transform="translate(-17.45 -10.27)"/><path class="cls-15" d="M26.72,203.24l-.47-2.33c-.29-1.41.34-2.28,1.89-2.6L29.8,198a1.88,1.88,0,0,1,2.18.86L36.76,196l.36,1.75-4.57,2.43.07.2,4.83-1,.33,1.59ZM28,201.32l3.17-.65-.08-.37a1.71,1.71,0,0,0-.14-.45.7.7,0,0,0-.79-.29l-1.67.34c-.5.11-.7.39-.61.85Z" transform="translate(-17.45 -10.27)"/><path class="cls-15" d="M25.48,197l-.68-4.17,1.58-.26.42,2.56,3.2-.52-.37-2.21,1.59-.26.37,2.21,3.19-.53-.43-2.56,1.59-.26.69,4.17Z" transform="translate(-17.45 -10.27)"/><path class="cls-15" d="M319.55,198.92a2.34,2.34,0,1,1,.86-4.6l6.79,1.26a2.34,2.34,0,1,1-.86,4.6Zm7.09-.34a.65.65,0,0,0,.88-.55h0c.09-.46-.12-.74-.62-.83l-6.79-1.27c-.5-.09-.8.09-.88.55s.12.75.62.85Z" transform="translate(-17.45 -10.27)"/><path class="cls-15" d="M328.14,202.3l-.56,2.44c-.33,1.41-1.27,1.94-2.81,1.59l-1.65-.38a1.62,1.62,0,0,1-1.33-1.22,1.64,1.64,0,0,1-1.73.52l-1.66-.38a2.07,2.07,0,0,1-1.81-2.75l.54-2.34Zm-6.66.14-3.15-.72-.16.7c-.1.46.09.74.59.86l1.66.38a.68.68,0,0,0,.79-.27,1.31,1.31,0,0,0,.16-.45Zm4.73,1.09-3.16-.73-.11.5a1.67,1.67,0,0,0-.06.47.7.7,0,0,0,.6.59l1.66.38c.5.11.8-.06.91-.52Z" transform="translate(-17.45 -10.27)"/><path class="cls-15" d="M326.66,208.62l-1.15,4.07-1.55-.44.71-2.5-3.11-.89L321,211l-1.55-.44.61-2.15-3.11-.89-.71,2.5-1.54-.44,1.16-4.07Z" transform="translate(-17.45 -10.27)"/><path class="cls-15" d="M323.07,213.31a2.34,2.34,0,1,1-1.39,4.46l-1.45-.45.49-1.55,1.45.45a.66.66,0,0,0,.94-.45h0c.14-.45,0-.75-.52-.9l-1-.3q-.72-.23-2.22.9a3.13,3.13,0,0,1-2.94.68l-1.36-.43a2.34,2.34,0,1,1,1.39-4.46l1.45.45-.48,1.56L316,212.8a.66.66,0,0,0-.95.46c-.14.45,0,.75.52.9l1.23.38c.52.17,1.28-.13,2.28-.88a3.17,3.17,0,0,1,3-.67Z" transform="translate(-17.45 -10.27)"/><path class="cls-15" d="M323.22,220.06l-1.41,4-1.51-.54.86-2.45-3-1.08-.75,2.11-1.52-.54.75-2.11-3.05-1.08-.87,2.44-1.51-.53,1.41-4Z" transform="translate(-17.45 -10.27)"/><path class="cls-15" d="M314.87,124a2.34,2.34,0,1,1-1.55-4.41l6.51-2.3a2.34,2.34,0,1,1,1.56,4.41Zm6-3.83a.65.65,0,0,0,.48-.92h0a.65.65,0,0,0-1-.41l-6.51,2.3a.71.71,0,1,0,.47,1.34Z" transform="translate(-17.45 -10.27)"/><path class="cls-15" d="M324,122.58l.74,2.4c.42,1.39-.12,2.31-1.64,2.77l-1.62.5a1.61,1.61,0,0,1-1.76-.39,1.63,1.63,0,0,1-1.24,1.32l-1.63.5a2.05,2.05,0,0,1-2.93-1.48l-.71-2.3ZM318.31,126l-3.09.95.21.68a.65.65,0,0,0,.94.45l1.63-.5a.67.67,0,0,0,.55-.63,1.27,1.27,0,0,0-.09-.46Zm4.63-1.43-3.09,1,.15.49a1.59,1.59,0,0,0,.19.44.71.71,0,0,0,.81.21l1.63-.5a.66.66,0,0,0,.53-.91Z" transform="translate(-17.45 -10.27)"/><path class="cls-15" d="M325.89,128.8l1,4.1-1.56.39-.63-2.52-3.14.79.55,2.16-1.57.39L320,132l-3.14.79.63,2.51-1.55.39-1-4.1Z" transform="translate(-17.45 -10.27)"/><path class="cls-15" d="M325.12,134.65a2.34,2.34,0,1,1,1,4.57l-1.48.33-.36-1.59,1.48-.33c.5-.11.69-.4.59-.86h0c-.1-.46-.4-.63-.9-.52l-1,.22c-.49.11-1,.75-1.47,1.9a3.16,3.16,0,0,1-2.21,2.06l-1.39.31a2.34,2.34,0,1,1-1-4.57l1.48-.33.36,1.59-1.49.33c-.49.12-.69.4-.59.87s.41.63.91.52l1.25-.28c.53-.12,1-.76,1.53-1.91a3.21,3.21,0,0,1,2.25-2.07Z" transform="translate(-17.45 -10.27)"/><path class="cls-15" d="M328.63,140.42l.76,4.16-1.58.29-.47-2.56-3.18.59.41,2.2-1.59.29-.4-2.2-3.18.59.47,2.55-1.58.29-.77-4.15Z" transform="translate(-17.45 -10.27)"/><path class="cls-15" d="M273.35,61.37a2.34,2.34,0,1,1-3.56-3l4.49-5.24a2.34,2.34,0,1,1,3.56,3Zm3.25-6.31a.65.65,0,0,0,0-1h0a.65.65,0,0,0-1,.13L271,59.38a.65.65,0,0,0,0,1,.66.66,0,0,0,1-.11Z" transform="translate(-17.45 -10.27)"/><path class="cls-15" d="M280.57,55.62l1.83,1.71c1.06,1,1.05,2.06,0,3.21l-1.16,1.25a1.62,1.62,0,0,1-1.72.54,1.65,1.65,0,0,1-.42,1.76l-1.16,1.25a2.06,2.06,0,0,1-3.28.19l-1.76-1.64Zm-3.2,5.83-2.2,2.37.52.49a.66.66,0,0,0,1-.08L277.89,63a.69.69,0,0,0,.16-.82,1.37,1.37,0,0,0-.31-.36Zm3.3-3.55-2.21,2.37.38.35a1.8,1.8,0,0,0,.37.29.72.72,0,0,0,.82-.23l1.15-1.24c.35-.38.36-.73,0-1Z" transform="translate(-17.45 -10.27)"/><path class="cls-15" d="M285.31,60.06l2.94,3-1.15,1.12-1.81-1.87L283,64.59l1.55,1.61-1.16,1.12-1.55-1.61L279.49,68l1.8,1.87L280.14,71l-2.94-3Z" transform="translate(-17.45 -10.27)"/><path class="cls-15" d="M287.57,65.51A2.34,2.34,0,1,1,290.74,69l-1.12,1-1.1-1.2,1.12-1a.66.66,0,0,0,.08-1h0a.66.66,0,0,0-1,0l-.75.7c-.37.34-.48,1.13-.32,2.37a3.16,3.16,0,0,1-.89,2.89l-1,1a2.34,2.34,0,1,1-3.17-3.44l1.12-1,1.1,1.19-1.11,1a.71.71,0,1,0,1,1.05l.95-.87c.4-.37.52-1.18.37-2.42a3.2,3.2,0,0,1,.91-2.92Z" transform="translate(-17.45 -10.27)"/><path class="cls-15" d="M293.49,68.75,296.23,72,295,73l-1.68-2-2.47,2.1,1.45,1.7-1.22,1-1.45-1.7-2.46,2.09,1.68,2-1.22,1-2.74-3.21Z" transform="translate(-17.45 -10.27)"/><path class="cls-15" d="M68.79,71.84l-4.46-6.6L65.43,64l8.36,7.59-1.05,1.16-4.69-4.26,3.76,5.29-.75.81-5.65-3.19,4.69,4.26L69,76.86l-8.36-7.59,1.09-1.21Z" transform="translate(-17.45 -10.27)"/><path class="cls-15" d="M66.72,62.75l1.13-1.17L76,69.44l-1.13,1.17Z" transform="translate(-17.45 -10.27)"/><path class="cls-15" d="M77,68.42l-7.82-8.13,1.17-1.13,6.71,7,1.87-1.8L80,65.5Z" transform="translate(-17.45 -10.27)"/><path class="cls-15" d="M73.17,56.45l1.88-1.67q1.62-1.44,3.2.33L82.6,60a2.05,2.05,0,0,1-.12,3.28l-1.8,1.6Zm2.29.12,5.37,6,.53-.48a.65.65,0,0,0,0-1L77,56.2a.65.65,0,0,0-1-.11Z" transform="translate(-17.45 -10.27)"/><path class="cls-15" d="M32,152l-7.44-2.84.21-1.62L36,148.93l-.2,1.55-6.28-.79,6.11,2.17-.14,1.1-6.46.63,6.28.79-.2,1.57-11.2-1.42.21-1.61Z" transform="translate(-17.45 -10.27)"/><path class="cls-15" d="M34.85,142.69A2.34,2.34,0,1,1,34,147.3l-6.8-1.21a2.34,2.34,0,1,1,.82-4.6Zm-7.09.4a.66.66,0,0,0-.88.56h0c-.08.46.13.74.63.83l6.8,1.2c.5.09.8-.09.88-.56s-.13-.75-.63-.84Z" transform="translate(-17.45 -10.27)"/><path class="cls-15" d="M26.23,139.4l.54-2.45c.31-1.41,1.24-1.95,2.78-1.61l6.39,1.4a2.06,2.06,0,0,1,1.83,2.73l-.51,2.35Zm1.91-1.25,7.9,1.74.15-.7c.1-.46-.1-.75-.6-.86l-6.39-1.4c-.5-.11-.8.06-.9.53Z" transform="translate(-17.45 -10.27)"/><path class="cls-15" d="M27.64,133.23l1-4.1,1.56.39L29.59,132l3.14.78.55-2.16,1.56.39-.54,2.17,3.13.78.63-2.52,1.56.4-1,4.09Z" transform="translate(-17.45 -10.27)"/><path class="cls-15" d="M29.14,127.54l.68-2.27c.43-1.38,1.39-1.84,2.91-1.38l1.62.49a1.89,1.89,0,0,1,1.51,1.79l5.56-.22-.52,1.7-5.18,0,0,.21,4.73,1.43-.48,1.56Zm2-1.09,3.1.94.11-.36a2.06,2.06,0,0,0,.09-.46.69.69,0,0,0-.56-.63l-1.63-.5a.66.66,0,0,0-.94.46Z" transform="translate(-17.45 -10.27)"/><path class="cls-15" d="M39.39,119.58l4,.81L42.8,122l-2.36-.49L39.89,123l2.16,1.09-.54,1.55-3.59-1.81-6.52-3.49.73-2.11Zm-.54,1.55-4.64-.95,4.23,2.13Z" transform="translate(-17.45 -10.27)"/><path class="cls-15" d="M34.63,111.68l1.5.59-.56,1.42,9,3.52L44,118.73l-9-3.53-.56,1.42L32.93,116Z" transform="translate(-17.45 -10.27)"/><path class="cls-15" d="M35.15,110.43l1.69-3.88,1.47.64-1,2.38,3,1.29.89-2,1.48.64-.89,2,3,1.29,1-2.38,1.47.64-1.68,3.87Z" transform="translate(-17.45 -10.27)"/><path class="cls-15" d="M307.9,190.66a2.13,2.13,0,1,1,.6-4.22l6.23.88a2.13,2.13,0,1,1-.6,4.22l-1.37-.19.2-1.47,1.37.19a.6.6,0,0,0,.79-.54h0c.06-.42-.14-.66-.6-.73l-6.23-.88q-.69-.1-.78.54c-.06.43.14.67.6.74l1.37.19-.21,1.47Z" transform="translate(-17.45 -10.27)"/><path class="cls-15" d="M305.73,191.49l10.12,1.83-.26,1.46-8.68-1.57-.42,2.33-1.44-.26Z" transform="translate(-17.45 -10.27)"/><path class="cls-15" d="M307.56,200.89l-3.66-.32.32-1.46,2.19.19.32-1.48-2.06-.76.32-1.46,3.44,1.26,6.27,2.45-.43,2Zm.32-1.47,4.3.37-4.05-1.47Z" transform="translate(-17.45 -10.27)"/><path class="cls-15" d="M311.74,203.25a2.13,2.13,0,1,1-1,4.14l-1.34-.34.36-1.44,1.34.34a.6.6,0,0,0,.84-.46h0c.1-.41-.07-.68-.52-.79l-.91-.23c-.44-.11-1.1.21-2,.94a2.84,2.84,0,0,1-2.64.77l-1.26-.31a2.13,2.13,0,1,1,1-4.14l1.34.34-.36,1.44-1.34-.34a.65.65,0,1,0-.32,1.26l1.14.28c.48.12,1.16-.18,2-.92a2.88,2.88,0,0,1,2.67-.76Z" transform="translate(-17.45 -10.27)"/><path class="cls-15" d="M310.26,208.85a2.13,2.13,0,1,1-1.25,4.07l-1.32-.41.43-1.41,1.33.4a.59.59,0,0,0,.85-.41h0c.13-.41,0-.68-.47-.82l-.9-.27c-.43-.13-1.1.14-2,.83a2.88,2.88,0,0,1-2.68.63l-1.24-.38a2.13,2.13,0,1,1,1.25-4.07l1.32.4-.43,1.42-1.33-.4a.65.65,0,1,0-.38,1.23l1.13.35c.47.14,1.16-.13,2.07-.82a2.89,2.89,0,0,1,2.71-.62Z" transform="translate(-17.45 -10.27)"/><path class="cls-15" d="M309.5,217.62,309,219l-9.67-3.51.51-1.4Z" transform="translate(-17.45 -10.27)"/><path class="cls-15" d="M308.43,220.51l-.54,1.39-9.58-3.73.54-1.38Z" transform="translate(-17.45 -10.27)"/><path class="cls-15" d="M307.3,223.38l-.57,1.37-9.5-3.94.57-1.37Z" transform="translate(-17.45 -10.27)"/><path class="cls-15" d="M301.16,124a2.13,2.13,0,1,1-1.55-4l5.86-2.29a2.13,2.13,0,1,1,1.55,4l-1.29.5-.53-1.38,1.28-.5a.6.6,0,0,0,.42-.85h0a.6.6,0,0,0-.89-.35l-5.86,2.29c-.43.17-.57.45-.41.85a.59.59,0,0,0,.88.36l1.29-.51.54,1.39Z" transform="translate(-17.45 -10.27)"/><path class="cls-15" d="M299.69,125.77l9.71-3.38.49,1.41-8.33,2.89.77,2.23-1.38.48Z" transform="translate(-17.45 -10.27)"/><path class="cls-15" d="M305.89,133.07l-3.34,1.52-.44-1.43,2-.91-.44-1.45-2.17.35-.44-1.43,3.62-.59,6.67-.94.59,1.95Zm-.43-1.43,3.93-1.79-4.26.7Z" transform="translate(-17.45 -10.27)"/><path class="cls-15" d="M310.78,133.23a2.13,2.13,0,1,1,1,4.13l-1.35.34-.36-1.44,1.35-.34c.44-.11.62-.37.52-.79h0c-.1-.42-.38-.57-.83-.45l-.9.22c-.45.11-.88.7-1.3,1.76a2.85,2.85,0,0,1-2,1.92l-1.26.32a2.13,2.13,0,1,1-1-4.13l1.34-.34.36,1.44-1.34.34a.65.65,0,1,0,.31,1.25l1.14-.28c.48-.12.94-.71,1.35-1.77a2.93,2.93,0,0,1,2-1.94Z" transform="translate(-17.45 -10.27)"/><path class="cls-15" d="M312.15,138.68a2.13,2.13,0,1,1,.91,4.16l-1.35.3-.32-1.45,1.35-.3a.61.61,0,0,0,.55-.78h0a.6.6,0,0,0-.82-.47l-.91.2q-.68.13-1.35,1.71a2.86,2.86,0,0,1-2,1.86l-1.27.28A2.13,2.13,0,1,1,306,140l1.35-.3.31,1.45-1.35.3q-.68.15-.54.78c.09.42.36.58.82.48l1.15-.25c.48-.1.95-.68,1.4-1.73a2.92,2.92,0,0,1,2.06-1.87Z" transform="translate(-17.45 -10.27)"/><path class="cls-15" d="M315.79,146.68l.24,1.46-10.14,1.68-.25-1.46Z" transform="translate(-17.45 -10.27)"/><path class="cls-15" d="M316.28,149.72l.21,1.47-10.18,1.46-.22-1.47Z" transform="translate(-17.45 -10.27)"/><path class="cls-15" d="M262.6,69.18a2.13,2.13,0,1,1-3.29-2.7l4-4.87a2.13,2.13,0,1,1,3.3,2.7l-.88,1.07-1.14-.94.87-1.07a.6.6,0,0,0-.05-.95h0a.6.6,0,0,0-.94.13l-4,4.87a.59.59,0,0,0,.05,1,.6.6,0,0,0,.95-.13l.87-1.07,1.15.94Z" transform="translate(-17.45 -10.27)"/><path class="cls-15" d="M262.19,71.46,269,63.75l1.11,1-5.84,6.61L266,72.91l-1,1.1Z" transform="translate(-17.45 -10.27)"/><path class="cls-15" d="M271.17,74.77l-2.17,3-1.09-1,1.3-1.77-1.1-1.05-1.71,1.37-1.08-1,2.85-2.29,5.36-4.09,1.47,1.4Zm-1.09-1,2.55-3.49L269.26,73Z" transform="translate(-17.45 -10.27)"/><path class="cls-15" d="M275.46,72.49a2.13,2.13,0,1,1,3,3.06l-1,1-1-1.06,1-1a.59.59,0,0,0,.05-.94h0a.59.59,0,0,0-.94,0l-.67.65c-.33.32-.42,1-.25,2.17a2.88,2.88,0,0,1-.74,2.65l-.94.9a2.13,2.13,0,1,1-3-3.06l1-1L273,77l-1,1a.61.61,0,0,0,0,1,.6.6,0,0,0,.95,0l.84-.81c.36-.35.46-1.08.29-2.21a2.89,2.89,0,0,1,.77-2.67Z" transform="translate(-17.45 -10.27)"/><path class="cls-15" d="M279.37,76.58a2.13,2.13,0,1,1,2.83,3.18l-1,.92-1-1.11,1-.92a.6.6,0,0,0,.09-.94h0a.6.6,0,0,0-.95,0l-.69.62c-.34.31-.46,1-.34,2.16a2.89,2.89,0,0,1-.84,2.62l-1,.86a2.13,2.13,0,1,1-2.83-3.18l1-.92,1,1.11-1,.92a.65.65,0,1,0,.86,1l.87-.78c.38-.33.5-1.06.38-2.19a2.9,2.9,0,0,1,.88-2.64Z" transform="translate(-17.45 -10.27)"/><path class="cls-15" d="M286.49,81.8l.93,1.15-8,6.44-.93-1.16Z" transform="translate(-17.45 -10.27)"/></g></g></g></g></svg>