<svg xmlns="http://www.w3.org/2000/svg" viewBox="0 0 484.95 476.37"><defs><style>.cls-1{fill:#fff;}</style></defs><g id="Layer_2" data-name="Layer 2"><g id="Capa_1" data-name="Capa 1"><g id="_15" data-name="15"><path class="cls-1" d="M118.5,111h6.94A19.09,19.09,0,0,0,144.53,92V19.56A19.09,19.09,0,0,0,125.44.47H118.5A19.09,19.09,0,0,0,99.41,19.56V92A19.1,19.1,0,0,0,118.5,111Z"/><path class="cls-1" d="M363.37,110.57h6.94A19.09,19.09,0,0,0,389.4,91.48V19.09A19.09,19.09,0,0,0,370.31,0h-6.94a19.09,19.09,0,0,0-19.09,19.09V91.48A19.09,19.09,0,0,0,363.37,110.57Z"/><path class="cls-1" d="M453.92,39.27h-49V96.48c0,19.08-15.52,29.61-34.61,29.61h-6.93a34.65,34.65,0,0,1-34.61-34.61V39.27H160.05V92a34.65,34.65,0,0,1-34.61,34.61h-6.93A34.65,34.65,0,0,1,83.9,92V39.27H31a31.07,31.07,0,0,0-31,31v375a31.07,31.07,0,0,0,31,31H453.92a31.07,31.07,0,0,0,31-31v-375A31.07,31.07,0,0,0,453.92,39.27Zm0,406.07H31V162.12H453.92l0,283.21Z"/><path class="cls-1" d="M258.5,257.12h55.72a4,4,0,0,0,4-4V204.87a4,4,0,0,0-4-4H258.5a4,4,0,0,0-4,4v48.25A4,4,0,0,0,258.5,257.12Z"/><path class="cls-1" d="M349.44,257.12h55.73a4,4,0,0,0,4-4V204.87a4,4,0,0,0-4-4H349.44a4,4,0,0,0-4,4v48.25A4,4,0,0,0,349.44,257.12Z"/><path class="cls-1" d="M76.61,336.12h55.73a4,4,0,0,0,4-4V283.86a4,4,0,0,0-4-4H76.61a4,4,0,0,0-4,4v48.26A4,4,0,0,0,76.61,336.12Z"/><path class="cls-1" d="M167.55,336.12h55.73a4,4,0,0,0,4-4V283.86a4,4,0,0,0-4-4H167.55a4,4,0,0,0-4,4v48.26A4,4,0,0,0,167.55,336.12Z"/><path class="cls-1" d="M258.5,336.12h55.73a4,4,0,0,0,4-4V283.86a4,4,0,0,0-4-4H258.5a4,4,0,0,0-4,4v48.26A4,4,0,0,0,258.5,336.12Z"/><path class="cls-1" d="M349.44,336.12h55.73a4,4,0,0,0,4-4V283.86a4,4,0,0,0-4-4H349.44a4,4,0,0,0-4,4v48.26A4,4,0,0,0,349.44,336.12Z"/><path class="cls-1" d="M132.34,358.86H76.61a4,4,0,0,0-4,4v48.26a4,4,0,0,0,4,4h55.73a4,4,0,0,0,4-4V362.86A4,4,0,0,0,132.34,358.86Z"/><path class="cls-1" d="M223.28,358.86H167.56a4,4,0,0,0-4,4v48.26a4,4,0,0,0,4,4h55.72a4,4,0,0,0,4-4V362.86A4,4,0,0,0,223.28,358.86Z"/><path class="cls-1" d="M314.23,358.86H258.5a4,4,0,0,0-4,4v48.26a4,4,0,0,0,4,4h55.73a4,4,0,0,0,4-4V362.86A4,4,0,0,0,314.23,358.86Z"/><path class="cls-1" d="M405.17,358.86H349.44a4,4,0,0,0-4,4v48.26a4,4,0,0,0,4,4h55.73a4,4,0,0,0,4-4V362.86A4,4,0,0,0,405.17,358.86Z"/></g></g></g></svg>