<svg xmlns="http://www.w3.org/2000/svg" viewBox="0 0 112.47 159.39"><g id="Layer_2" data-name="Layer 2"><g id="Layer_1-2" data-name="Layer 1"><path d="M65.83,95.2c-2.34,0-4.11,2-4.11,5.34s1.77,5.35,4.11,5.35,4.11-2,4.11-5.35S68.17,95.2,65.83,95.2Zm44.45-12.9c-2.13-10.89-8.78-19.15-17.13-25.89C99.86,37.13,95,19.12,80.35,8.2A40.13,40.13,0,0,0,32,8C17.15,18.89,12.21,36.85,18.91,56.57Q1.39,70.08.28,91.73c-.39,7.81-.35,15.66,0,23.48.88,21.06,15.33,39.17,36,42.73,11.32,1.95,23.27,1.66,34.79.72,19.72-1.61,35-14.94,39.26-34.25C113.37,110.55,113,96.29,110.28,82.3ZM41.51,25.76a19.6,19.6,0,0,1,25.22-1.1A18.73,18.73,0,0,1,72.63,48H37.2C33.2,41.14,35,31.65,41.51,25.76ZM54.7,110.2H39.31V85.07h4.86v20.39H54.7Zm11.94.28A5.83,5.83,0,0,1,61.57,108v2.23H57.1V83.57h4.68v9.36a5.79,5.79,0,0,1,4.86-2.33c4.53,0,8,3.88,8,9.94S71.17,110.48,66.64,110.48Z"/></g></g></svg>