<svg width="20" height="20" viewBox="0 0 20 20" fill="none" xmlns="http://www.w3.org/2000/svg">
<mask id="mask0_343_4193" style="mask-type:alpha" maskUnits="userSpaceOnUse" x="0" y="0" width="20" height="20">
<rect width="20" height="20" fill="#D9D9D9"/>
</mask>
<g mask="url(#mask0_343_4193)">
<path d="M14.6047 0.395258C14.8682 0.658762 15 0.970752 15 1.33123C15 1.691 14.8682 2.00264 14.6047 2.26614L6.88406 9.98683L14.6311 17.7339C14.877 17.9798 15 18.2872 15 18.6561C15 19.025 14.8682 19.3412 14.6047 19.6047C14.3412 19.8682 14.0292 20 13.6688 20C13.309 20 12.9974 19.8682 12.7339 19.6047L3.8801 10.7246C3.7747 10.6192 3.69987 10.5051 3.6556 10.3821C3.61203 10.2591 3.59025 10.1274 3.59025 9.98683C3.59025 9.84629 3.61203 9.71454 3.6556 9.59157C3.69987 9.4686 3.7747 9.35441 3.8801 9.24901L12.7602 0.368908C13.0061 0.12297 13.309 8.70483e-07 13.6688 8.70483e-07C14.0292 8.70483e-07 14.3412 0.131753 14.6047 0.395258Z" fill="#60BADD"/>
</g>
</svg>
